<svg width="227" height="227" viewBox="0 0 227 227" fill="none" xmlns="http://www.w3.org/2000/svg">
<circle cx="113.5" cy="113.5" r="113.5" fill="url(#paint0_radial_188_2001)"/>
<path d="M113.095 182.79C98.3786 182.79 84.2439 178.004 72.2116 168.946C55.9481 156.729 46.071 138.68 45.119 119.442L45 117.22H127.243C128.777 117.207 130.033 116.771 130.773 116.004C131.315 115.449 131.593 114.708 131.567 113.836C131.527 111.746 129.927 110.517 127.296 110.517H45.1058L45.1454 108.348C46.0049 79.6954 70.81 47.38 109.406 45.1322C110.808 45.0529 112.236 45 113.637 45C119.733 45 125.762 45.7801 131.58 47.3271C135.361 48.332 139.077 49.6807 142.594 51.3203C146.257 53.026 149.8 55.0754 153.119 57.4158L154.203 58.1827L151.532 61.3825L150.607 60.7346C147.579 58.6058 144.326 56.7414 140.955 55.168C137.53 53.5813 133.947 52.2987 130.337 51.3467C125.008 49.9452 119.429 49.2311 113.743 49.2311C112.381 49.2311 110.993 49.2708 109.618 49.3501C74.6445 51.3996 51.4393 80.2243 49.4691 106.259H74.2346C91.9128 106.259 109.578 106.259 127.256 106.272C132.175 106.272 135.692 109.34 135.785 113.73C135.824 115.779 135.137 117.604 133.801 118.979C132.254 120.552 129.927 121.452 127.243 121.478H49.5088C51.0294 138.601 60.1792 154.6 74.7635 165.548C86.0686 174.037 99.3306 178.532 113.108 178.532C116.652 178.532 120.209 178.228 123.699 177.62L123.157 177.078C119.931 173.838 116.612 170.493 113.267 167.267C113.188 167.214 112.751 167.042 112.117 167.003C91.86 165.879 76.5221 156.306 66.526 138.548C66.2219 137.993 65.9839 137.437 65.7723 136.922C65.7194 136.803 65.6401 136.631 65.574 136.459L64.2385 133.471C64.2385 133.471 67.6234 133.167 67.7556 133.153L68.0598 133.127C68.2713 133.114 68.4432 133.1 68.6151 133.1L75.1734 133.087C84.9976 133.087 95.1523 133.087 105.162 133.153C106.867 133.153 108.52 134.171 109.406 135.044C118.001 143.573 126.516 152.088 133.709 159.294L138.376 163.961L144.829 170.454C160.55 162.837 177.858 138.085 177.501 123.898H175.703C174.314 123.911 172.913 123.911 171.498 123.911C169.713 123.911 167.915 123.898 166.13 123.858H165.879C165.786 123.858 165.707 123.858 165.654 123.858C165.627 123.951 165.588 124.083 165.548 124.308C163.247 136.023 157.549 145.913 148.61 153.701L147.103 155.01L125.947 133.894L129.782 133.074C129.914 133.048 130.073 133.008 130.244 132.981C130.39 132.955 130.562 132.915 130.72 132.889C131.62 132.73 132.611 132.545 133.55 132.267C142.594 129.623 148.491 120.764 147.262 111.641C145.926 101.856 137.966 94.7424 128.314 94.7292C114.576 94.7028 100.587 94.7028 87.0867 94.7028C81.3614 94.716 75.6494 94.716 69.9109 94.716H64.1327L65.4021 91.741C65.455 91.5823 65.5343 91.4104 65.6136 91.2385L65.7194 90.9609C65.931 90.4452 66.1293 89.9956 66.3408 89.5725C74.0627 74.5916 88.0255 64.384 104.686 61.5676C107.7 61.0519 110.768 60.8007 113.783 60.8007C117.948 60.8007 122.086 61.2899 126.093 62.2552L127.428 62.5725L125.96 66.5921L124.903 66.3409C121.266 65.4814 117.525 65.0451 113.756 65.0451C110.979 65.0451 108.176 65.2831 105.4 65.7591C90.4584 68.2845 77.8707 77.2625 70.691 90.4584H87.0867C92.6269 90.4584 98.2331 90.4452 103.879 90.4452C112.011 90.4452 120.209 90.4584 128.314 90.4716C140.122 90.4848 149.866 99.1455 151.466 111.072C152.974 122.258 145.781 133.127 134.74 136.34C134.647 136.366 134.568 136.393 134.476 136.419L147.248 149.166C154.613 142.224 159.36 133.59 161.343 123.475C161.872 120.83 163.327 119.587 165.932 119.587H166.209C167.941 119.627 169.7 119.64 171.445 119.64C172.834 119.64 174.209 119.627 175.571 119.627H181.256L181.521 121.438C182.645 129.002 178.744 140.201 171.088 151.387C163.512 162.454 153.807 171.26 145.146 174.949L143.811 175.491L140.479 172.133C138.879 170.52 137.252 168.88 135.626 167.267L130.641 162.282C123.157 154.772 114.669 146.27 106.365 138.046C105.955 137.649 105.32 137.384 105.082 137.384C97.9422 137.332 90.5774 137.318 83.7018 137.318H70.7042C79.9599 153.172 93.9491 161.714 112.315 162.718C114.047 162.851 115.343 163.353 116.202 164.173C119.005 166.884 121.822 169.7 124.532 172.424L128.79 176.695C129.041 176.946 129.213 177.21 129.332 177.395L129.438 177.554L129.478 177.633L131.263 180.251L128.261 180.952C123.356 182.195 118.225 182.79 113.095 182.79Z" fill="url(#paint1_linear_188_2001)"/>
<defs>
<radialGradient id="paint0_radial_188_2001" cx="0" cy="0" r="1" gradientUnits="userSpaceOnUse" gradientTransform="translate(80.2592 71.0742) rotate(45.4907) scale(144.436)">
<stop stop-color="#754901"/>
<stop offset="1" stop-color="#1C1C1C"/>
</radialGradient>
<linearGradient id="paint1_linear_188_2001" x1="44.9955" y1="113.897" x2="181.746" y2="113.897" gradientUnits="userSpaceOnUse">
<stop stop-color="#FAA344"/>
<stop offset="0.3102" stop-color="#F19B2B"/>
<stop offset="0.7523" stop-color="#E7910C"/>
<stop offset="1" stop-color="#E38D00"/>
</linearGradient>
</defs>
</svg>
